<svg width="316" height="84" viewBox="0 0 316 84" fill="none" xmlns="http://www.w3.org/2000/svg">
<path d="M104.383 6.40296H107.959V36.7745H104.383V6.40296Z" fill="#3A3537"/>
<path d="M114.845 21.4601C114.845 20.5449 114.816 19.687 114.76 18.8862C114.703 18.0854 114.675 17.3562 114.675 16.6984H117.825C117.825 17.2418 117.839 17.7852 117.867 18.3285C117.896 18.8719 117.91 19.4296 117.91 20.0015H117.995C118.222 19.5154 118.534 19.0435 118.931 18.5859C119.357 18.1283 119.854 17.728 120.421 17.3848C120.989 17.013 121.627 16.727 122.337 16.5268C123.046 16.298 123.813 16.1836 124.636 16.1836C125.941 16.1836 127.062 16.3838 127.999 16.7842C128.964 17.1846 129.758 17.7423 130.383 18.4572C131.007 19.1722 131.461 20.0444 131.745 21.074C132.057 22.0749 132.213 23.176 132.213 24.3771V36.7745H128.893V24.7203C128.893 23.033 128.524 21.7031 127.786 20.7308C127.048 19.7584 125.899 19.2723 124.338 19.2723C123.259 19.2723 122.323 19.4582 121.528 19.8299C120.762 20.2017 120.123 20.7308 119.613 21.4172C119.13 22.1035 118.761 22.9186 118.506 23.8623C118.279 24.8061 118.165 25.8499 118.165 26.9939V36.7745H114.845V21.4601Z" fill="#3A3537"/>
<path d="M140.202 19.5297H135.86V16.6984H140.202V12.1942C140.202 10.9644 140.315 9.84908 140.542 8.84813C140.769 7.81859 141.152 6.93203 141.692 6.18847C142.259 5.44491 142.997 4.87295 143.905 4.47257C144.813 4.04359 145.934 3.8291 147.268 3.8291C147.694 3.8291 148.148 3.872 148.63 3.95779C149.113 4.04359 149.51 4.17228 149.822 4.34387L149.354 7.34671C148.559 7.06073 147.807 6.91774 147.098 6.91774C146.246 6.91774 145.58 7.07503 145.097 7.38961C144.615 7.6756 144.246 8.09027 143.99 8.63364C143.763 9.14842 143.621 9.77758 143.565 10.5211C143.536 11.2647 143.522 12.0655 143.522 12.9234V16.6984H148.375V19.5297H143.522V36.7745H140.202V19.5297Z" fill="#3A3537"/>
<path d="M150.777 26.7365C150.777 25.1636 151.047 23.7336 151.586 22.4467C152.125 21.1598 152.863 20.0587 153.8 19.1436C154.736 18.1998 155.857 17.4706 157.162 16.9558C158.468 16.441 159.887 16.1836 161.419 16.1836C162.952 16.1836 164.371 16.441 165.676 16.9558C166.982 17.4706 168.103 18.1998 169.039 19.1436C169.976 20.0587 170.714 21.1598 171.253 22.4467C171.792 23.7336 172.062 25.1636 172.062 26.7365C172.062 28.3094 171.792 29.7393 171.253 31.0262C170.714 32.3132 169.976 33.4285 169.039 34.3723C168.103 35.2874 166.982 36.0024 165.676 36.5172C164.371 37.0319 162.952 37.2893 161.419 37.2893C159.887 37.2893 158.468 37.0319 157.162 36.5172C155.857 36.0024 154.736 35.2874 153.8 34.3723C152.863 33.4285 152.125 32.3132 151.586 31.0262C151.047 29.7393 150.777 28.3094 150.777 26.7365ZM154.353 26.7365C154.353 27.7946 154.509 28.7813 154.821 29.6964C155.162 30.583 155.644 31.3694 156.269 32.0558C156.893 32.7136 157.631 33.2426 158.482 33.643C159.362 34.0148 160.341 34.2007 161.419 34.2007C162.498 34.2007 163.463 34.0148 164.314 33.643C165.194 33.2426 165.946 32.7136 166.57 32.0558C167.195 31.3694 167.663 30.583 167.975 29.6964C168.316 28.7813 168.486 27.7946 168.486 26.7365C168.486 25.6783 168.316 24.706 167.975 23.8194C167.663 22.9043 167.195 22.1178 166.57 21.4601C165.946 20.7737 165.194 20.2446 164.314 19.8728C163.463 19.4725 162.498 19.2723 161.419 19.2723C160.341 19.2723 159.362 19.4725 158.482 19.8728C157.631 20.2446 156.893 20.7737 156.269 21.4601C155.644 22.1178 155.162 22.9043 154.821 23.8194C154.509 24.706 154.353 25.6783 154.353 26.7365Z" fill="#3A3537"/>
<path d="M177.798 6.40296H186.993C188.241 6.40296 189.462 6.53166 190.654 6.78904C191.846 7.04643 192.91 7.47541 193.846 8.07597C194.783 8.64794 195.535 9.4058 196.103 10.3496C196.698 11.2933 196.996 12.4658 196.996 13.8672C196.996 15.6403 196.514 17.1131 195.549 18.2856C194.613 19.4296 193.336 20.2446 191.718 20.7308V20.8166C192.683 20.9024 193.577 21.1598 194.4 21.5888C195.251 21.9891 195.975 22.5182 196.571 23.176C197.195 23.8337 197.678 24.6059 198.018 25.4924C198.359 26.3504 198.529 27.2798 198.529 28.2808C198.529 29.9681 198.174 31.3551 197.465 32.4419C196.784 33.5286 195.875 34.4009 194.74 35.0586C193.634 35.6878 192.371 36.1311 190.952 36.3885C189.561 36.6458 188.17 36.7745 186.78 36.7745H177.798V6.40296ZM181.374 19.2723H186.312C187.163 19.2723 187.986 19.2151 188.781 19.1007C189.604 18.9863 190.342 18.7575 190.994 18.4143C191.647 18.0425 192.172 17.5421 192.569 16.9129C192.967 16.2551 193.165 15.3972 193.165 14.339C193.165 13.3953 192.981 12.6374 192.612 12.0655C192.243 11.4649 191.746 10.993 191.122 10.6498C190.526 10.3067 189.831 10.0779 189.036 9.96347C188.27 9.82048 187.489 9.74898 186.695 9.74898H181.374V19.2723ZM181.374 33.4285H187.418C188.298 33.4285 189.164 33.3427 190.015 33.1711C190.895 32.9709 191.675 32.6707 192.356 32.2703C193.066 31.8413 193.634 31.2979 194.059 30.6402C194.485 29.9538 194.698 29.1244 194.698 28.1521C194.698 27.094 194.485 26.2074 194.059 25.4924C193.662 24.7775 193.123 24.2055 192.442 23.7765C191.789 23.3476 191.023 23.0473 190.143 22.8757C189.291 22.7041 188.412 22.6183 187.504 22.6183H181.374V33.4285Z" fill="#3A3537"/>
<path d="M221.809 33.1282C220.617 34.6726 219.312 35.7593 217.893 36.3885C216.474 36.989 214.828 37.2893 212.955 37.2893C211.394 37.2893 209.989 37.0176 208.741 36.4743C207.492 35.9023 206.428 35.1444 205.548 34.2007C204.696 33.2569 204.03 32.1416 203.547 30.8547C203.093 29.5677 202.866 28.195 202.866 26.7365C202.866 25.1922 203.121 23.7765 203.632 22.4896C204.143 21.1741 204.853 20.0587 205.761 19.1436C206.669 18.1998 207.747 17.4706 208.996 16.9558C210.245 16.441 211.607 16.1836 213.083 16.1836C214.473 16.1836 215.75 16.4267 216.914 16.9129C218.077 17.3705 219.071 18.0568 219.894 18.972C220.745 19.8585 221.398 20.9596 221.852 22.2751C222.306 23.562 222.533 25.0349 222.533 26.6936V27.766H206.442C206.499 28.624 206.697 29.4533 207.038 30.2541C207.407 31.0262 207.875 31.7126 208.443 32.3132C209.01 32.8852 209.677 33.3427 210.443 33.6859C211.21 34.0291 212.047 34.2007 212.955 34.2007C214.402 34.2007 215.623 33.9433 216.616 33.4285C217.609 32.9137 218.503 32.1559 219.298 31.1549L221.809 33.1282ZM218.957 24.9348C218.9 23.2189 218.347 21.8461 217.297 20.8166C216.247 19.787 214.8 19.2723 212.955 19.2723C211.11 19.2723 209.62 19.787 208.485 20.8166C207.35 21.8461 206.669 23.2189 206.442 24.9348H218.957Z" fill="#3A3537"/>
<path d="M227.414 19.2723C228.436 18.2141 229.642 17.442 231.032 16.9558C232.451 16.441 233.885 16.1836 235.332 16.1836C238.283 16.1836 240.412 16.8843 241.717 18.2856C243.023 19.687 243.675 21.8175 243.675 24.6774V33.2998C243.675 33.8718 243.704 34.4724 243.761 35.1015C243.817 35.7021 243.888 36.2598 243.973 36.7745H240.781C240.667 36.317 240.596 35.8165 240.568 35.2731C240.568 34.7012 240.568 34.2007 240.568 33.7717H240.483C239.83 34.8012 238.95 35.6449 237.843 36.3027C236.765 36.9604 235.46 37.2893 233.927 37.2893C232.905 37.2893 231.941 37.1606 231.032 36.9032C230.153 36.6458 229.372 36.2741 228.691 35.7879C228.038 35.2731 227.513 34.644 227.116 33.9004C226.719 33.1568 226.52 32.2989 226.52 31.3265C226.52 29.6678 226.946 28.3666 227.797 27.4228C228.649 26.4791 229.699 25.7784 230.947 25.3209C232.224 24.8633 233.587 24.5773 235.034 24.4629C236.51 24.3485 237.858 24.2913 239.078 24.2913H240.355V23.6907C240.355 22.2322 239.915 21.1312 239.035 20.3876C238.184 19.6441 236.978 19.2723 235.417 19.2723C234.339 19.2723 233.274 19.4582 232.224 19.8299C231.203 20.1731 230.295 20.7165 229.5 21.4601L227.414 19.2723ZM237.035 27.1226C234.906 27.1226 233.218 27.4228 231.969 28.0234C230.72 28.624 230.096 29.6106 230.096 30.9834C230.096 32.2417 230.507 33.1425 231.33 33.6859C232.182 34.2007 233.232 34.4581 234.481 34.4581C235.445 34.4581 236.283 34.3008 236.992 33.9862C237.73 33.643 238.34 33.1997 238.823 32.6564C239.305 32.113 239.674 31.4838 239.929 30.7689C240.185 30.0253 240.327 29.2388 240.355 28.4095V27.1226H237.035Z" fill="#3A3537"/>
<path d="M249.744 21.4601C249.744 20.5449 249.715 19.687 249.659 18.8862C249.602 18.0854 249.574 17.3562 249.574 16.6984H252.724C252.724 17.2418 252.738 17.7852 252.766 18.3285C252.795 18.8719 252.809 19.4296 252.809 20.0015H252.894C253.121 19.5154 253.433 19.0435 253.83 18.5859C254.256 18.1283 254.753 17.728 255.32 17.3848C255.888 17.013 256.527 16.727 257.236 16.5268C257.946 16.298 258.712 16.1836 259.535 16.1836C260.84 16.1836 261.961 16.3838 262.898 16.7842C263.863 17.1846 264.657 17.7423 265.282 18.4572C265.906 19.1722 266.36 20.0444 266.644 21.074C266.956 22.0749 267.112 23.176 267.112 24.3771V36.7745H263.792V24.7203C263.792 23.033 263.423 21.7031 262.685 20.7308C261.947 19.7584 260.798 19.2723 259.237 19.2723C258.158 19.2723 257.222 19.4582 256.427 19.8299C255.661 20.2017 255.022 20.7308 254.512 21.4172C254.029 22.1035 253.66 22.9186 253.405 23.8623C253.178 24.8061 253.064 25.8499 253.064 26.9939V36.7745H249.744V21.4601Z" fill="#3A3537"/>
<path d="M273.824 31.4981C274.476 32.3275 275.186 32.9852 275.952 33.4714C276.747 33.9576 277.74 34.2007 278.932 34.2007C279.443 34.2007 279.954 34.1435 280.464 34.0291C281.004 33.9147 281.486 33.7288 281.912 33.4714C282.337 33.214 282.678 32.8994 282.933 32.5277C283.189 32.1273 283.317 31.6554 283.317 31.112C283.317 30.5687 283.189 30.1254 282.933 29.7822C282.706 29.439 282.394 29.153 281.997 28.9243C281.6 28.6669 281.146 28.4667 280.635 28.3237C280.124 28.1807 279.599 28.052 279.06 27.9376C278.123 27.7374 277.229 27.5086 276.378 27.2513C275.526 26.9939 274.774 26.665 274.122 26.2646C273.497 25.8356 272.986 25.2923 272.589 24.6345C272.22 23.9767 272.036 23.1331 272.036 22.1035C272.036 21.1312 272.249 20.2732 272.674 19.5297C273.1 18.7861 273.668 18.1712 274.377 17.6851C275.087 17.1989 275.881 16.8271 276.761 16.5697C277.641 16.3123 278.549 16.1836 279.485 16.1836C280.904 16.1836 282.21 16.4696 283.402 17.0416C284.622 17.6136 285.573 18.543 286.254 19.8299L283.487 21.6745C283.061 20.9596 282.494 20.3876 281.784 19.9586C281.103 19.5011 280.266 19.2723 279.272 19.2723C278.818 19.2723 278.35 19.3295 277.868 19.4439C277.414 19.5583 277.002 19.7299 276.633 19.9586C276.264 20.1874 275.952 20.4877 275.697 20.8595C275.47 21.2027 275.356 21.6031 275.356 22.0606C275.356 22.4896 275.484 22.8614 275.739 23.176C276.023 23.462 276.392 23.7193 276.846 23.9481C277.329 24.1769 277.868 24.3771 278.464 24.5487C279.088 24.7203 279.727 24.8633 280.379 24.9777C281.259 25.1493 282.096 25.3781 282.891 25.664C283.685 25.9214 284.381 26.2789 284.977 26.7365C285.573 27.1941 286.041 27.766 286.382 28.4524C286.722 29.1387 286.892 29.9824 286.892 30.9834C286.892 32.1273 286.665 33.0996 286.211 33.9004C285.757 34.7012 285.147 35.3589 284.381 35.8737C283.643 36.3599 282.792 36.7173 281.827 36.9461C280.89 37.1749 279.925 37.2893 278.932 37.2893C277.229 37.2893 275.753 37.0319 274.505 36.5172C273.284 35.9738 272.178 34.9871 271.184 33.5572L273.824 31.4981Z" fill="#3A3537"/>
<path d="M104.383 53.1138H123.071V56.4598H107.959V66.4979H122.006V69.8439H107.959V83.4854H104.383V53.1138Z" fill="#3A3537"/>
<path d="M126.292 73.4473C126.292 71.8744 126.561 70.4445 127.1 69.1575C127.64 67.8706 128.377 66.7696 129.314 65.8544C130.251 64.9107 131.371 64.1814 132.677 63.6666C133.982 63.1519 135.401 62.8945 136.934 62.8945C138.466 62.8945 139.885 63.1519 141.191 63.6666C142.496 64.1814 143.617 64.9107 144.554 65.8544C145.49 66.7696 146.228 67.8706 146.767 69.1575C147.307 70.4445 147.576 71.8744 147.576 73.4473C147.576 75.0202 147.307 76.4502 146.767 77.7371C146.228 79.024 145.49 80.1394 144.554 81.0831C143.617 81.9983 142.496 82.7132 141.191 83.228C139.885 83.7428 138.466 84.0002 136.934 84.0002C135.401 84.0002 133.982 83.7428 132.677 83.228C131.371 82.7132 130.251 81.9983 129.314 81.0831C128.377 80.1394 127.64 79.024 127.1 77.7371C126.561 76.4502 126.292 75.0202 126.292 73.4473ZM129.867 73.4473C129.867 74.5055 130.023 75.4921 130.336 76.4073C130.676 77.2938 131.159 78.0803 131.783 78.7666C132.407 79.4244 133.145 79.9535 133.997 80.3538C134.876 80.7256 135.855 80.9115 136.934 80.9115C138.012 80.9115 138.977 80.7256 139.829 80.3538C140.708 79.9535 141.46 79.4244 142.085 78.7666C142.709 78.0803 143.177 77.2938 143.489 76.4073C143.83 75.4921 144 74.5055 144 73.4473C144 72.3892 143.83 71.4168 143.489 70.5303C143.177 69.6151 142.709 68.8287 142.085 68.1709C141.46 67.4845 140.708 66.9555 139.829 66.5837C138.977 66.1833 138.012 65.9831 136.934 65.9831C135.855 65.9831 134.876 66.1833 133.997 66.5837C133.145 66.9555 132.407 67.4845 131.783 68.1709C131.159 68.8287 130.676 69.6151 130.336 70.5303C130.023 71.4168 129.867 72.3892 129.867 73.4473Z" fill="#3A3537"/>
<path d="M170.085 78.7237C170.085 79.6389 170.113 80.4968 170.17 81.2976C170.226 82.0984 170.255 82.8276 170.255 83.4854H167.105C167.105 82.942 167.09 82.3986 167.062 81.8553C167.034 81.3119 167.02 80.7542 167.02 80.1823H166.934C166.707 80.6684 166.381 81.1403 165.955 81.5979C165.558 82.0555 165.076 82.4701 164.508 82.8419C163.94 83.1851 163.302 83.4568 162.592 83.657C161.883 83.8858 161.117 84.0002 160.294 84.0002C158.988 84.0002 157.853 83.8 156.888 83.3996C155.952 82.9992 155.171 82.4415 154.547 81.7266C153.922 81.0116 153.454 80.1537 153.142 79.1527C152.858 78.1232 152.716 77.0078 152.716 75.8067V63.4093H156.037V75.4635C156.037 77.1508 156.406 78.4806 157.144 79.453C157.881 80.4253 159.031 80.9115 160.592 80.9115C161.67 80.9115 162.592 80.7256 163.359 80.3538C164.153 79.9821 164.792 79.453 165.274 78.7666C165.785 78.0803 166.154 77.2652 166.381 76.3215C166.636 75.3777 166.764 74.3339 166.764 73.1899V63.4093H170.085V78.7237Z" fill="#3A3537"/>
<path d="M176.37 68.1709C176.37 67.2557 176.342 66.3978 176.285 65.597C176.229 64.7963 176.2 64.067 176.2 63.4093H179.35C179.35 63.9526 179.364 64.496 179.393 65.0394C179.421 65.5827 179.435 66.1404 179.435 66.7124H179.521C179.748 66.2262 180.06 65.7543 180.457 65.2967C180.883 64.8392 181.379 64.4388 181.947 64.0956C182.515 63.7238 183.153 63.4379 183.863 63.2377C184.572 63.0089 185.338 62.8945 186.161 62.8945C187.467 62.8945 188.588 63.0947 189.524 63.495C190.489 63.8954 191.284 64.4531 191.908 65.1681C192.532 65.883 192.987 66.7553 193.27 67.7848C193.583 68.7858 193.739 69.8868 193.739 71.0879V83.4854H190.418V71.4311C190.418 69.7438 190.049 68.414 189.311 67.4416C188.574 66.4693 187.424 65.9831 185.863 65.9831C184.785 65.9831 183.848 66.169 183.054 66.5408C182.288 66.9126 181.649 67.4416 181.138 68.128C180.656 68.8144 180.287 69.6294 180.031 70.5732C179.804 71.5169 179.691 72.5608 179.691 73.7047V83.4854H176.37V68.1709Z" fill="#3A3537"/>
<path d="M216.584 79.9249H216.499C215.874 81.0688 214.881 82.0412 213.519 82.8419C212.185 83.6141 210.624 84.0002 208.836 84.0002C207.446 84.0002 206.14 83.7428 204.92 83.228C203.7 82.6846 202.635 81.9411 201.727 80.9973C200.848 80.0536 200.152 78.9382 199.641 77.6513C199.131 76.3644 198.875 74.963 198.875 73.4473C198.875 71.9316 199.131 70.5303 199.641 69.2433C200.152 67.9564 200.862 66.8411 201.77 65.8973C202.678 64.9536 203.771 64.2243 205.048 63.7095C206.353 63.1662 207.786 62.8945 209.347 62.8945C210.795 62.8945 212.114 63.1948 213.306 63.7953C214.526 64.3959 215.591 65.2396 216.499 66.3263H216.584V51.0547H219.904V83.4854H216.584V79.9249ZM216.584 73.4473C216.584 72.3892 216.414 71.4168 216.073 70.5303C215.761 69.6151 215.293 68.8287 214.668 68.1709C214.044 67.4845 213.292 66.9555 212.412 66.5837C211.561 66.1833 210.596 65.9831 209.517 65.9831C208.439 65.9831 207.46 66.1833 206.58 66.5837C205.729 66.9555 204.991 67.4845 204.367 68.1709C203.742 68.8287 203.26 69.6151 202.919 70.5303C202.607 71.4168 202.451 72.3892 202.451 73.4473C202.451 74.5055 202.607 75.4921 202.919 76.4073C203.26 77.2938 203.742 78.0803 204.367 78.7666C204.991 79.4244 205.729 79.9535 206.58 80.3538C207.46 80.7256 208.439 80.9115 209.517 80.9115C210.596 80.9115 211.561 80.7256 212.412 80.3538C213.292 79.9535 214.044 79.4244 214.668 78.7666C215.293 78.0803 215.761 77.2938 216.073 76.4073C216.414 75.4921 216.584 74.5055 216.584 73.4473Z" fill="#3A3537"/>
<path d="M225.793 65.9831C226.814 64.925 228.021 64.1528 229.411 63.6666C230.83 63.1519 232.263 62.8945 233.711 62.8945C236.662 62.8945 238.791 63.5951 240.096 64.9965C241.401 66.3978 242.054 68.5284 242.054 71.3882V80.0107C242.054 80.5826 242.083 81.1832 242.139 81.8124C242.196 82.4129 242.267 82.9706 242.352 83.4854H239.159C239.046 83.0278 238.975 82.5273 238.947 81.984C238.947 81.412 238.947 80.9115 238.947 80.4825H238.861C238.209 81.5121 237.329 82.3557 236.222 83.0135C235.144 83.6713 233.838 84.0002 232.306 84.0002C231.284 84.0002 230.319 83.8715 229.411 83.6141C228.531 83.3567 227.751 82.9849 227.07 82.4987C226.417 81.984 225.892 81.3548 225.495 80.6112C225.097 79.8677 224.899 79.0097 224.899 78.0374C224.899 76.3787 225.325 75.0774 226.176 74.1337C227.027 73.1899 228.077 72.4893 229.326 72.0317C230.603 71.5741 231.965 71.2881 233.413 71.1737C234.888 71.0593 236.236 71.0021 237.457 71.0021H238.734V70.4016C238.734 68.9431 238.294 67.842 237.414 67.0985C236.563 66.3549 235.357 65.9831 233.796 65.9831C232.717 65.9831 231.653 66.169 230.603 66.5408C229.581 66.884 228.673 67.4273 227.879 68.1709L225.793 65.9831ZM235.413 73.8334C233.285 73.8334 231.596 74.1337 230.348 74.7342C229.099 75.3348 228.475 76.3215 228.475 77.6942C228.475 78.9525 228.886 79.8534 229.709 80.3967C230.561 80.9115 231.611 81.1689 232.859 81.1689C233.824 81.1689 234.661 81.0116 235.371 80.697C236.109 80.3538 236.719 79.9106 237.201 79.3672C237.684 78.8238 238.053 78.1947 238.308 77.4797C238.564 76.7361 238.705 75.9497 238.734 75.1203V73.8334H235.413Z" fill="#3A3537"/>
<path d="M259.02 66.2405H253.146V76.2786C253.146 76.9363 253.16 77.5512 253.188 78.1232C253.217 78.6665 253.33 79.1527 253.529 79.5817C253.728 79.9821 254.025 80.3109 254.423 80.5683C254.82 80.7971 255.388 80.9115 256.126 80.9115C256.608 80.9115 257.105 80.8543 257.615 80.7399C258.126 80.6255 258.609 80.4539 259.063 80.2252L259.191 83.2709C258.623 83.5283 257.984 83.7142 257.275 83.8286C256.594 83.943 255.941 84.0002 255.317 84.0002C254.125 84.0002 253.174 83.8429 252.465 83.5283C251.755 83.2137 251.202 82.7704 250.804 82.1984C250.407 81.6265 250.138 80.9258 249.996 80.0965C249.882 79.2385 249.825 78.2948 249.825 77.2652V66.2405H245.483V63.4093H249.825V57.7039H253.146V63.4093H259.02V66.2405Z" fill="#3A3537"/>
<path d="M263.428 63.4093H266.748V83.4854H263.428V63.4093ZM262.662 55.559C262.662 54.9012 262.889 54.3292 263.343 53.8431C263.825 53.3569 264.407 53.1138 265.088 53.1138C265.769 53.1138 266.337 53.3569 266.791 53.8431C267.273 54.3292 267.514 54.9012 267.514 55.559C267.514 56.2739 267.287 56.8602 266.833 57.3178C266.379 57.7754 265.798 58.0041 265.088 58.0041C264.379 58.0041 263.797 57.7754 263.343 57.3178C262.889 56.8602 262.662 56.2739 262.662 55.559Z" fill="#3A3537"/>
<path d="M272.207 73.4473C272.207 71.8744 272.477 70.4445 273.016 69.1575C273.555 67.8706 274.293 66.7696 275.229 65.8544C276.166 64.9107 277.287 64.1814 278.592 63.6666C279.898 63.1519 281.317 62.8945 282.849 62.8945C284.382 62.8945 285.801 63.1519 287.106 63.6666C288.412 64.1814 289.533 64.9107 290.469 65.8544C291.406 66.7696 292.144 67.8706 292.683 69.1575C293.222 70.4445 293.492 71.8744 293.492 73.4473C293.492 75.0202 293.222 76.4502 292.683 77.7371C292.144 79.024 291.406 80.1394 290.469 81.0831C289.533 81.9983 288.412 82.7132 287.106 83.228C285.801 83.7428 284.382 84.0002 282.849 84.0002C281.317 84.0002 279.898 83.7428 278.592 83.228C277.287 82.7132 276.166 81.9983 275.229 81.0831C274.293 80.1394 273.555 79.024 273.016 77.7371C272.477 76.4502 272.207 75.0202 272.207 73.4473ZM275.783 73.4473C275.783 74.5055 275.939 75.4921 276.251 76.4073C276.592 77.2938 277.074 78.0803 277.698 78.7666C278.323 79.4244 279.061 79.9535 279.912 80.3538C280.792 80.7256 281.771 80.9115 282.849 80.9115C283.928 80.9115 284.893 80.7256 285.744 80.3538C286.624 79.9535 287.376 79.4244 288 78.7666C288.625 78.0803 289.093 77.2938 289.405 76.4073C289.745 75.4921 289.916 74.5055 289.916 73.4473C289.916 72.3892 289.745 71.4168 289.405 70.5303C289.093 69.6151 288.625 68.8287 288 68.1709C287.376 67.4845 286.624 66.9555 285.744 66.5837C284.893 66.1833 283.928 65.9831 282.849 65.9831C281.771 65.9831 280.792 66.1833 279.912 66.5837C279.061 66.9555 278.323 67.4845 277.698 68.1709C277.074 68.8287 276.592 69.6151 276.251 70.5303C275.939 71.4168 275.783 72.3892 275.783 73.4473Z" fill="#3A3537"/>
<path d="M298.632 68.1709C298.632 67.2557 298.603 66.3978 298.547 65.597C298.49 64.7963 298.462 64.067 298.462 63.4093H301.612C301.612 63.9526 301.626 64.496 301.654 65.0394C301.683 65.5827 301.697 66.1404 301.697 66.7124H301.782C302.009 66.2262 302.321 65.7543 302.718 65.2967C303.144 64.8392 303.641 64.4388 304.208 64.0956C304.776 63.7238 305.414 63.4379 306.124 63.2377C306.833 63.0089 307.6 62.8945 308.423 62.8945C309.728 62.8945 310.849 63.0947 311.786 63.495C312.751 63.8954 313.545 64.4531 314.169 65.1681C314.794 65.883 315.248 66.7553 315.532 67.7848C315.844 68.7858 316 69.8868 316 71.0879V83.4854H312.68V71.4311C312.68 69.7438 312.311 68.414 311.573 67.4416C310.835 66.4693 309.686 65.9831 308.125 65.9831C307.046 65.9831 306.11 66.169 305.315 66.5408C304.549 66.9126 303.91 67.4416 303.4 68.128C302.917 68.8144 302.548 69.6294 302.293 70.5732C302.066 71.5169 301.952 72.5608 301.952 73.7047V83.4854H298.632V68.1709Z" fill="#3A3537"/>
<path d="M61.9637 55.9345C61.8747 55.4985 61.2366 53.1209 60.782 50.8744C60.5317 49.645 61.6017 48.7537 62.7836 48.7484C71.0085 48.7146 74.2448 40.7898 71.5036 35.1045L69.5374 36.8383C68.2608 37.9659 66.9571 37.5145 66.6399 35.8344L64.311 23.5123C63.9952 21.8327 65.0682 20.8896 66.6979 21.4184L78.5742 25.2691C80.2046 25.7973 80.4944 27.152 79.2181 28.2818L77.1423 30.0875C83.8404 37.6184 80.7957 54.2493 65.1503 57.644C65.1503 57.644 62.4909 58.5224 61.9637 55.9345Z" fill="#E91F3F"/>
<path d="M59.3659 31.1718C58.9268 31.1223 56.4857 30.9992 54.2251 30.7406C52.9874 30.6007 52.4769 29.2998 52.8372 28.1654C55.3469 20.2722 48.8678 14.7217 42.6551 15.5919L43.6839 18.0121C44.3535 19.5841 43.5246 20.694 41.841 20.4789L29.4921 18.9031C27.8093 18.6868 27.2508 17.3669 28.2535 15.9684L35.5577 5.77616C36.56 4.37682 37.9281 4.51767 38.6 6.09L39.6627 8.63752C48.8399 4.54519 63.5948 12.6025 61.9639 28.646C61.9639 28.646 61.9711 31.4662 59.3659 31.1718Z" fill="#E91F3F"/>
<path d="M35.4894 25.8753C35.307 26.2808 34.4365 28.5823 33.4938 30.669C32.9793 31.8119 31.5938 31.8992 30.6345 31.2034C23.9607 26.3589 16.7201 30.8533 15.6217 37.0764L18.2236 36.8383C19.9141 36.6823 20.7055 37.8197 19.9822 39.3669L14.6791 50.715C13.9548 52.2609 12.5366 52.3884 11.5266 50.9953L4.16458 40.8453C3.15366 39.4523 3.70935 38.1846 5.40089 38.0266L8.13355 37.7954C7.10726 27.7353 19.271 16.0841 33.9084 22.6048C33.9084 22.6048 36.5723 23.4694 35.4894 25.8753Z" fill="#E91F3F"/>
<path d="M24.0802 46.5569C24.4066 46.857 26.3096 48.4025 27.9877 49.9507C28.9073 50.797 28.5616 52.1519 27.6085 52.8562C20.9741 57.7554 22.9782 66.0836 28.512 69.0594L29.0914 66.4921C29.4665 64.8237 30.7845 64.4167 32.0212 65.5881L41.0925 74.1773C42.3277 75.3492 42.0097 76.7478 40.3828 77.2852L28.5286 81.2045C26.9015 81.7429 25.8768 80.8186 26.2504 79.1486L26.8766 76.4582C17.0651 74.333 9.82782 59.0749 20.5051 47.0614C20.5051 47.0614 22.1442 44.7756 24.0802 46.5569Z" fill="#E91F3F"/>
<path d="M41.4417 65.7017C41.8257 65.4817 43.8724 64.1354 45.8522 63.0055C46.9351 62.3857 48.1069 63.1357 48.4771 64.2668C51.0507 72.1392 59.5299 72.7919 64.0484 68.4079L61.8045 67.0593C60.3459 66.1842 60.369 64.7953 61.8566 63.9721L72.7661 57.9324C74.2538 57.1107 75.4754 57.8476 75.48 59.5729L75.5157 72.1451C75.521 73.8709 74.3321 74.5673 72.8714 73.6932L70.5258 72.2617C65.4882 81.0083 48.8516 83.2295 40.8131 69.2841C40.8131 69.2841 39.1623 67.0067 41.4417 65.7017Z" fill="#E91F3F"/>
</svg>
